<?xml version="1.0" encoding="utf-8"?>
<!-- Generator: Adobe Illustrator 26.0.3, SVG Export Plug-In . SVG Version: 6.00 Build 0)  -->
<svg xmlns="http://www.w3.org/2000/svg" xmlns:xlink="http://www.w3.org/1999/xlink" class="card" face="2C" height="3.5in" preserveAspectRatio="none" viewBox="0 0 180 252" width="2.5in">
	<style type="text/css">
	.st0{fill:#FFFFFF;stroke:#000000;stroke-width:0.75;stroke-miterlimit:3;}
	.st1{fill:#FF3B3B;}
</style>
	<path class="st0" d="M9.4,0.4h161.2c5,0,9,4,9,9v233.2c0,5-4,9-9,9H9.4c-5,0-9-4-9-9V9.4C0.4,4.4,4.4,0.4,9.4,0.4z" />
	<path class="st1" d="M18,9h144c5,0,9,4,9,9v216c0,5-4,9-9,9H18c-5,0-9-4-9-9V18C9,13,13,9,18,9z" />
</svg>